<svg width="9" height="9" viewBox="0 0 9 9" fill="none" xmlns="http://www.w3.org/2000/svg">
<g id="kebab-horizontal" clip-path="url(#clip0_6_469)">
<g id="Icon">
<path d="M0.946793 4.8848C1.38879 4.8848 1.7471 4.52649 1.7471 4.08449C1.7471 3.64249 1.38879 3.28418 0.946793 3.28418C0.504795 3.28418 0.146484 3.64249 0.146484 4.08449C0.146484 4.52649 0.504795 4.8848 0.946793 4.8848Z" fill="#666668"/>
<path d="M4.4148 4.8848C4.8568 4.8848 5.2151 4.52649 5.2151 4.08449C5.2151 3.64249 4.8568 3.28418 4.4148 3.28418C3.9728 3.28418 3.61449 3.64249 3.61449 4.08449C3.61449 4.52649 3.9728 4.8848 4.4148 4.8848Z" fill="#666668"/>
<path d="M8.68311 4.08449C8.68311 4.52649 8.32478 4.8848 7.8828 4.8848C7.44082 4.8848 7.08249 4.52649 7.08249 4.08449C7.08249 3.64249 7.44082 3.28418 7.8828 3.28418C8.32478 3.28418 8.68311 3.64249 8.68311 4.08449Z" fill="#666668"/>
</g>
</g>
<defs>
<clipPath id="clip0_6_469">
<rect width="8.53662" height="8.53662" fill="white" transform="translate(0.146484 0.0830078)"/>
</clipPath>
</defs>
</svg>
